# xmcd
#
# Track frame offsets: 
#        183
#        14038
#        26843
#        41888
#        54520
#        68975
#        82993
#        98658
#        113473
#        129325
#        142218
#        155345
#        170850
#        184938
#        199890
#        215798
#        228555
#        242308
#        255675
#        268558
#        281715
#        293013
#        304835
#
# Disc length: 4261 seconds
#
# Revision: 2
# Processed by: cddbd v1.5.2PL0 Copyright (c) Steve Scherf et al.
# Submitted via: ExactAudioCopy v1.0b3
#
DISCID=5b10a317
DTITLE=Tampa Red - It Hurts Me Too: The Essential Recordings of Tampa 
DTITLE=Red
DYEAR=1994
DGENRE=Blues
TTITLE0=It's Tight Like That
TTITLE1=What Is It That Tastes Like Gravy?
TTITLE2=You Got To Reap What You Sow
TTITLE3=I Wonder Where My Easy Rider's Gone
TTITLE4=Boogie Woogie Dance
TTITLE5=New Stranger Blues
TTITLE6=Bumble Bee Blues
TTITLE7=No Matter How She Done It
TTITLE8=Things 'Bout Coming My Way
TTITLE9=You Can't Get The Stuff No More
TTITLE10=Denver Blues
TTITLE11=Black Angel Blues
TTITLE12=Kingfish Blues
TTITLE13=Sugar Mama Blues No. 2
TTITLE14=You Missed A Good Man
TTITLE15=Stormy Sea Blues
TTITLE16=Seminole Blues
TTITLE17=Love With A Feeling
TTITLE18=Anna Lou Blues
TTITLE19=Don't You Lie To Me
TTITLE20=It Hurts Me Too
TTITLE21=Let Me Play With Your Poodle
TTITLE22=She Wants To Sell My Monkey
EXTD=Indigo  IGOCD 2004\n\nSubmitted 6/17/96\n[jmccoy@efn.org]
EXTT0=
EXTT1=
EXTT2=
EXTT3=
EXTT4=
EXTT5=
EXTT6=
EXTT7=
EXTT8=
EXTT9=
EXTT10=
EXTT11=
EXTT12=
EXTT13=
EXTT14=
EXTT15=
EXTT16=
EXTT17=
EXTT18=
EXTT19=
EXTT20=
EXTT21=
EXTT22=
PLAYORDER=
